<?xml version="1.0" standalone="no"?>
<!DOCTYPE svg PUBLIC "-//W3C//DTD SVG 1.1//EN" "http://www.w3.org/Graphics/SVG/1.1/DTD/svg11.dtd" >
<svg xmlns="http://www.w3.org/2000/svg">
<metadata>
This is a custom SVG webfont generated by Font Squirrel.
Copyright   :  Luc as  de Groot 1994
</metadata>
<defs>
<font id="TheSerifSemiBoldPlain" horiz-adv-x="1328" >
<font-face units-per-em="2048" ascent="1638" descent="-410" />
<missing-glyph horiz-adv-x="446" />
<glyph unicode=" "  horiz-adv-x="446" />
<glyph unicode="&#x09;" horiz-adv-x="446" />
<glyph unicode="&#xa0;" horiz-adv-x="446" />
<glyph unicode="!" horiz-adv-x="620" d="M184 116q0 52 36 86t90 34q52 0 88 -35t36 -85q0 -52 -36 -87t-88 -35q-54 0 -90 35t-36 87zM196 1440h226l-34 -1062h-156z" />
<glyph unicode="&#x22;" horiz-adv-x="784" d="M114 1508h194l-30 -462h-132zM478 1508h192l-30 -462h-134z" />
<glyph unicode="#" horiz-adv-x="1406" d="M72 392v130h300l40 376h-280v130h294l36 340h156l-34 -340h306l38 340h156l-34 -340h282v-130h-298l-40 -376h280v-130h-292l-40 -376h-156l38 376h-308l-40 -376h-158l42 376h-288zM530 522h308l40 376h-308z" />
<glyph unicode="$" horiz-adv-x="954" d="M108 920q0 130 86 225t224 121l12 2v212h114v-200h14q106 -6 214 -28v-284h-116q-18 88 -20 138v12l-12 2q-50 10 -94 10q-112 0 -170 -50t-58 -128q0 -72 57 -121t137 -82t161 -72t138 -116t57 -191q0 -136 -89 -239t-235 -135l-12 -4v-260h-114v248h-14q-120 2 -238 30 v294h116q12 -64 20 -140l2 -12l10 -2q54 -14 114 -14q106 0 174 49t68 151q0 64 -40 111t-101 71t-132 57t-132 69t-101 107t-40 169z" />
<glyph unicode="%" horiz-adv-x="1594" d="M82 1068q0 162 94 257t226 95q134 0 217 -78t83 -244q0 -158 -93 -257t-227 -99q-138 0 -219 82t-81 244zM240 1082q0 -214 152 -214q72 0 115 59t43 159q0 110 -38 159t-116 49q-68 0 -112 -59t-44 -153zM248 54l938 1374l128 -100l-936 -1374zM868 288q0 162 91 257 t221 95q138 0 223 -78t85 -244q0 -158 -96 -256t-232 -98q-134 0 -213 82t-79 242zM1022 304q0 -216 148 -216q72 0 117 59t45 159q0 210 -158 210q-66 0 -109 -58t-43 -154z" />
<glyph unicode="&#x26;" horiz-adv-x="1680" d="M122 380q0 126 69 228t201 206l14 10l-12 12q-104 118 -143 195t-39 161q0 130 98 220t270 90q156 0 242 -76t86 -200q0 -102 -57 -194t-183 -192l-12 -12l10 -12q188 -198 418 -382l12 -10l10 14q102 140 114 334v14l-14 2q-84 8 -120 16v110h482v-110q-58 -12 -144 -20 l-12 -2l-2 -12q-28 -254 -168 -438l-10 -10l12 -10q108 -88 214 -162l2 -2l4 -2q62 -10 128 -22v-108h-276q-100 72 -210 160l-10 8l-10 -8q-214 -184 -522 -184q-214 0 -328 109t-114 279zM316 410q0 -108 79 -185t205 -77q196 0 350 128l14 12l-14 12q-246 204 -428 404 l-10 12l-12 -10q-184 -150 -184 -296zM398 1202q0 -94 142 -258l10 -10l10 8q164 132 164 266q0 70 -41 113t-119 43q-74 0 -120 -45t-46 -117z" />
<glyph unicode="'" horiz-adv-x="422" d="M114 1508h194l-30 -462h-132z" />
<glyph unicode="(" horiz-adv-x="638" d="M142 582q0 526 274 972h168q-258 -444 -258 -962q0 -538 262 -972h-174q-272 442 -272 962z" />
<glyph unicode=")" horiz-adv-x="638" d="M62 -380q260 436 260 970q0 522 -260 964h174q268 -442 268 -968q0 -528 -270 -966h-172z" />
<glyph unicode="*" horiz-adv-x="774" d="M94 1084l226 96l-226 96l62 106l196 -146l-32 244h126l-30 -244l196 146l60 -104l-226 -96l226 -96l-62 -108l-196 148l32 -244h-126l30 244l-196 -148z" />
<glyph unicode="+" horiz-adv-x="1154" d="M68 452v152h420v434h176v-434h422v-152h-422v-436h-176v436h-420z" />
<glyph unicode="," horiz-adv-x="494" d="M76 -250q112 126 112 216q0 54 -34 94q-28 34 -28 74q0 46 32 80t86 34q58 0 93 -44t35 -116q0 -196 -226 -402z" />
<glyph unicode="-" horiz-adv-x="678" d="M110 444v144h460v-144h-460z" />
<glyph unicode="." horiz-adv-x="494" d="M118 124q0 52 38 90t92 38t92 -38t38 -90q0 -54 -38 -92t-92 -38t-92 38t-38 92z" />
<glyph unicode="/" horiz-adv-x="862" d="M90 16l516 1352h180l-514 -1352h-182z" />
<glyph unicode="0" horiz-adv-x="1188" d="M96 532q0 244 153 393t359 149q244 0 365 -146t121 -372q0 -248 -153 -397t-367 -149q-212 0 -345 129t-133 393zM284 548q0 -170 78 -275t230 -105q130 0 222 104t92 274q0 166 -80 269t-226 103q-134 0 -225 -101t-91 -269z" />
<glyph unicode="1" horiz-adv-x="728" d="M40 942l296 110h156v-888h14q82 -6 164 -24v-110h-594v110q90 18 206 24h14v724l-224 -94z" />
<glyph unicode="2" horiz-adv-x="924" d="M94 30v154l242 196q130 118 185 194t55 158q0 88 -47 140t-135 52q-72 0 -136 -26l-10 -4v-10q-4 -48 -20 -142h-110v272q154 58 306 58q168 0 265 -86t97 -224q0 -104 -60 -195t-188 -199l-170 -152l-14 -32l24 2q90 8 452 8v-164h-736z" />
<glyph unicode="3" horiz-adv-x="884" d="M82 -346l18 162q72 -22 172 -22q140 0 222 68t82 194q0 42 -12 79t-44 77t-99 63t-163 23q-50 0 -106 -6v142q196 2 300 75t104 205q0 96 -50 151t-138 55q-50 0 -120 -22l-8 -2l-2 -12q-8 -80 -20 -144h-108v274q144 56 278 56q180 0 273 -90t93 -234q0 -108 -65 -195 t-171 -129l-8 -2v-26l12 -2q122 -26 191 -110t69 -202q0 -198 -147 -321t-375 -123q-96 0 -178 18zM136 418h10h6v16z" />
<glyph unicode="4" horiz-adv-x="1066" d="M28 178l524 878h242v-874h234v-166h-234v-260h14q68 -4 156 -24v-102h-512v102q92 20 154 24h14v260h-560zM196 178l28 2q102 2 384 2h16v676h-26z" />
<glyph unicode="5" horiz-adv-x="892" d="M104 -372l20 168q76 -12 134 -12q162 0 248 79t86 207q0 126 -90 204t-256 78q-36 0 -100 -4v704h608v-188l-432 2v-364h16q210 0 334 -111t124 -291q0 -206 -159 -343t-393 -137q-78 0 -140 8z" />
<glyph unicode="6" horiz-adv-x="1130" d="M122 560q0 424 192 653t502 229q34 0 90 -4v-190q-58 36 -108 36q-188 0 -303 -118t-157 -328q-2 -6 -7 -31t-9 -43l-2 -8l22 -20l10 16q92 140 288 140q184 0 291 -114t107 -306q0 -208 -134 -343t-342 -135q-206 0 -323 149t-117 417zM338 460q0 -132 65 -221t185 -89 q112 0 182 82t70 212q0 132 -67 211t-179 79q-118 0 -187 -81t-69 -193z" />
<glyph unicode="7" horiz-adv-x="886" d="M48 710v342h784v-166q-252 -576 -386 -1240h-198q158 686 374 1222l10 22l-26 -2q-28 -2 -382 -2h-14l-2 -14q-8 -92 -22 -162h-138z" />
<glyph unicode="8" horiz-adv-x="1070" d="M104 356q0 120 69 204t191 164l40 28h-46q-236 142 -236 338q0 160 119 261t303 101q180 0 288 -89t108 -233q0 -102 -58 -184t-186 -166l-20 -14l20 -12q126 -76 198 -159t72 -207q0 -176 -131 -277t-319 -101q-192 0 -302 96t-110 250zM306 364q0 -98 63 -158t167 -60 q98 0 164 56t66 150q0 92 -62 157t-180 133l-2 2h-10l-4 -2q-202 -134 -202 -278zM322 1102q0 -78 52 -136t160 -122l8 -8l10 6q102 72 147 131t45 133q0 82 -56 139t-154 57q-96 0 -154 -57t-58 -143zM354 736l8 -2l-4 2h-4z" />
<glyph unicode="9" horiz-adv-x="1130" d="M90 578q0 212 132 352t336 140t327 -147t123 -445q0 -408 -188 -633t-522 -225q-60 0 -114 8v170q64 -16 124 -16q376 0 466 400q6 24 16 94l2 8l-20 20l-12 -14q-92 -136 -278 -136q-180 0 -286 115t-106 309zM290 598q0 -134 65 -208t183 -74q110 0 180 76t70 182 q0 136 -65 222t-181 86q-110 0 -181 -81t-71 -203z" />
<glyph unicode=":" horiz-adv-x="542" d="M142 124q0 52 38 90t90 38q54 0 92 -38t38 -90q0 -54 -38 -92t-92 -38q-52 0 -90 38t-38 92zM142 714q0 54 38 92t90 38q54 0 92 -38t38 -92t-38 -92t-92 -38q-52 0 -90 38t-38 92z" />
<glyph unicode=";" horiz-adv-x="542" d="M102 -250q112 124 112 216q0 52 -36 94q-26 32 -26 74q0 46 32 80t86 34q58 0 94 -44t36 -116q0 -194 -228 -402zM142 714q0 54 38 92t90 38q54 0 92 -38t38 -92t-38 -92t-92 -38q-52 0 -90 38t-38 92z" />
<glyph unicode="&#x3c;" horiz-adv-x="1028" d="M130 510l626 578l118 -120l-510 -456l512 -444l-122 -126z" />
<glyph unicode="=" horiz-adv-x="1184" d="M154 262v146h880v-146h-880zM154 630v148h880v-148h-880z" />
<glyph unicode="&#x3e;" horiz-adv-x="1028" d="M152 964l122 126l624 -568l-626 -578l-118 120l510 456z" />
<glyph unicode="?" horiz-adv-x="872" d="M148 1282l24 168q272 -16 423 -129t151 -265q0 -76 -33 -140t-79 -110l-93 -92q-47 -46 -80 -106t-33 -130q0 -50 14 -100h-182q-24 70 -24 138q0 70 31 132t76 107l89 86q44 41 75 90t31 101q0 104 -108 171t-282 79zM238 116q0 52 36 86t90 34q52 0 88 -35t36 -85 q0 -52 -36 -87t-88 -35q-54 0 -90 35t-36 87z" />
<glyph unicode="@" horiz-adv-x="1684" d="M136 624q0 334 225 553t547 219q296 0 466 -165t170 -411q0 -226 -110 -343t-294 -117q-86 0 -131 42t-45 104q0 2 1 8t1 10l2 18h-34l-4 -10q-30 -68 -98 -120t-150 -52q-172 0 -172 230q0 200 106 329t302 129q80 0 210 -26l-62 -334q-8 -40 -8 -80q0 -124 114 -124 q214 0 214 324q0 192 -122 323t-366 131q-254 0 -428 -174t-174 -446q0 -242 141 -386t401 -144q156 0 294 42v-132q-138 -46 -320 -46q-316 0 -496 177t-180 471zM650 622q0 -138 82 -138q78 0 138 97t92 255l16 92l-14 4q-52 12 -94 12q-106 0 -163 -104t-57 -218z" />
<glyph unicode="A" horiz-adv-x="1358" d="M14 16v108q38 10 106 18l8 2l430 1224h238l434 -1224l10 -2q68 -8 106 -18v-108h-480v106q64 16 138 22l18 2l-78 224h-550l-76 -224l18 -2q74 -6 138 -22v-106h-460zM440 516h458l-154 438q-36 98 -60 210l-2 12h-28l-2 -12q-18 -92 -62 -216z" />
<glyph unicode="B" horiz-adv-x="1182" d="M54 16v106q96 20 164 24l14 2v1086l-14 2q-68 4 -164 24v108h156q46 0 191 3t229 3q208 0 318 -84t110 -238q0 -100 -61 -182t-163 -118l-10 -4v-28l12 -2q122 -24 187 -108t65 -192q0 -56 -15 -110t-52 -109t-93 -96t-147 -67t-205 -26q-30 0 -154 3t-206 3h-162z M416 174l12 -2q68 -12 154 -12q146 0 223 70t77 184q0 230 -334 230q-96 0 -120 -2h-12v-468zM416 782h12q34 -2 114 -2q152 0 233 62t81 176q0 208 -262 208q-64 0 -164 -4h-14v-440z" />
<glyph unicode="C" horiz-adv-x="1142" d="M86 636q0 334 166 532t484 198q136 0 302 -36v-336h-138q-10 62 -22 166v10l-10 2q-88 22 -174 22q-190 0 -290 -143t-100 -379q0 -516 442 -516q148 0 292 56l12 -172q-174 -58 -352 -58q-300 0 -456 171t-156 483z" />
<glyph unicode="D" horiz-adv-x="1386" d="M54 16v106q96 20 164 24l14 2v1086l-14 2q-68 4 -164 24v108h156q50 0 193 3t227 3q318 0 494 -161t176 -503q0 -340 -200 -521t-530 -181q-76 0 -202 4t-152 4h-162zM418 180l12 -2q88 -12 162 -12q232 0 367 133t135 395q0 526 -482 526q-110 0 -182 -6l-12 -2v-1032z " />
<glyph unicode="E" horiz-adv-x="1030" d="M54 16v106q96 20 164 24l14 2v1086l-14 2q-68 4 -164 24v108h854v-302h-134q-16 82 -22 142l-2 14h-338v-444h272l2 12q12 80 22 114h114v-386h-114q-16 58 -22 112l-2 14h-272v-480h340l2 14q6 72 24 150h134v-312h-858z" />
<glyph unicode="F" horiz-adv-x="976" d="M54 16v106q96 20 164 24l14 2v1086l-14 2q-68 4 -164 24v108h854v-306h-134q-16 84 -22 144l-2 14h-338v-460h280l2 14q6 46 22 114h112v-394h-112q-16 68 -22 114l-2 14h-280v-474l14 -2q62 -4 150 -24v-106h-522z" />
<glyph unicode="G" horiz-adv-x="1352" d="M82 660q0 328 196 534t522 206q154 0 354 -46v-318h-138q-8 36 -22 162l-2 12l-10 2q-116 28 -198 28q-214 0 -354 -146t-140 -410q0 -252 128 -394t348 -142q110 0 210 32l10 4v366h-14q-72 6 -154 24v108h482v-110q-30 -8 -112 -20l-12 -2v-492q-206 -78 -436 -78 q-302 0 -480 181t-178 499z" />
<glyph unicode="H" horiz-adv-x="1496" d="M54 16v106q96 20 164 24l14 2v1086l-14 2q-68 4 -164 24v108h516v-110q-66 -16 -138 -22l-14 -2v-438h662v438l-14 2q-74 6 -140 22v110h520v-108q-96 -20 -164 -24l-14 -2v-1086l14 -2q68 -4 164 -24v-106h-520v110q52 12 140 20l14 2v488h-662v-488l14 -2 q86 -8 138 -20v-110h-516z" />
<glyph unicode="I" horiz-adv-x="652" d="M54 16v106q96 20 164 24l14 2v1086l-14 2q-68 4 -164 24v108h546v-108q-96 -20 -164 -24l-14 -2v-1086l14 -2q68 -4 164 -24v-106h-546z" />
<glyph unicode="J" horiz-adv-x="690" d="M14 -2v160q54 -16 118 -16q90 0 135 49t45 177v852h-16q-66 4 -162 24v108h504v-110q-72 -16 -120 -22l-14 -2v-860q0 -374 -346 -374q-70 0 -144 14z" />
<glyph unicode="K" d="M54 16v106q96 20 164 24l14 2v1086l-14 2q-68 4 -164 24v108h502v-110q-60 -16 -126 -22l-12 -2v-502v-46v-538l12 -2q80 -8 126 -20v-110h-502zM418 686l18 22l-18 24v-46zM436 708l466 530l-30 2q-44 2 -106 18v110h492v-108q-58 -12 -124 -22h-6l-472 -518l502 -574 l6 -2q62 -6 124 -22v-106h-510v108q44 12 100 18l28 4z" />
<glyph unicode="L" horiz-adv-x="918" d="M54 16v106q96 20 164 24l14 2v1086l-14 2q-68 4 -164 24v108h522v-108q-88 -20 -150 -24l-14 -2v-1066h322l2 14q12 102 26 166h130v-332h-838z" />
<glyph unicode="M" horiz-adv-x="1846" d="M28 16v110q22 6 104 16l12 2l170 1090l-16 2q-66 4 -162 24v108h438l256 -790q50 -156 72 -280l4 -12h28l2 12q18 96 74 272l262 798h440v-108q-96 -20 -164 -24l-16 -2l174 -1090l12 -2q80 -10 102 -16v-110h-470v106q60 14 138 22l16 2l-94 626q-34 224 -42 306v14h-30 l-2 -12q-26 -130 -70 -272l-254 -792h-204l-238 734q-64 194 -86 330l-2 12h-30l-2 -14q-6 -78 -36 -318l-76 -614l16 -2q72 -6 134 -22v-106h-460z" />
<glyph unicode="N" horiz-adv-x="1486" d="M54 16v106q96 20 164 24l14 2v1086l-14 2q-68 4 -164 24v108h438l456 -774q48 -80 152 -288l34 -66l-6 74q-14 220 -14 906v14l-14 2q-66 6 -130 22v110h466v-110q-66 -16 -124 -22l-14 -2v-1218h-260l-462 778q-62 104 -148 290q-6 10 -16 8q-12 -4 -12 -16 q12 -208 12 -680v-234v-14l14 -2q80 -8 138 -20v-110h-510z" />
<glyph unicode="O" horiz-adv-x="1380" d="M78 676q0 334 182 530t450 196q272 0 432 -178t160 -516q0 -334 -182 -531t-450 -197q-292 0 -442 185t-150 511zM284 702q0 -256 102 -405t300 -149q166 0 288 141t122 397q0 264 -107 407t-299 143q-170 0 -288 -142t-118 -392z" />
<glyph unicode="P" horiz-adv-x="1064" d="M54 16v106q96 20 164 24l14 2v1086l-14 2q-68 4 -164 24v108h140q26 0 156 4t202 4q226 0 352 -107t126 -295q0 -196 -140 -324t-364 -128q-64 0 -96 4l-16 2v-380l14 -2q68 -6 154 -24v-106h-528zM414 684h14q74 -10 94 -10q138 2 223 79t85 203t-74 197t-220 71 q-72 0 -108 -4l-14 -2v-534z" />
<glyph unicode="Q" horiz-adv-x="1378" d="M78 676q0 334 183 530t451 196q272 0 431 -178t159 -516q0 -334 -180 -531t-450 -197q-292 0 -443 185t-151 511zM284 702q0 -256 103 -405t301 -149q168 0 289 140t121 398q0 264 -106 407t-300 143q-170 0 -289 -142t-119 -392zM612 -336l16 -16v14l-14 2h-2zM628 -166 q54 6 100 6l648 -68v-170q-62 -10 -138 -10q-518 60 -610 70v172zM1376 -214v-14l14 -2h2z" />
<glyph unicode="R" horiz-adv-x="1164" d="M54 16v106q96 20 164 24l14 2v1086l-14 2q-68 4 -164 24v108h144q14 0 146 4t226 4q452 0 452 -360q0 -146 -95 -243t-247 -121l-24 -4l16 -20q22 -30 76 -114l238 -364l6 -2q102 -16 134 -22v-110h-298l-356 598h-56v-466l14 -2q70 -8 120 -20v-110h-496zM416 752l12 -2 q40 -4 106 -4q132 0 210 68t78 178q0 232 -280 232q-48 0 -112 -4l-14 -2v-466z" />
<glyph unicode="S" horiz-adv-x="972" d="M94 1006q0 178 125 287t339 109q114 0 254 -26v-304h-136q-16 90 -22 152l-2 12l-12 2q-66 12 -90 12q-122 0 -188 -59t-66 -157q0 -82 61 -137t147 -89t172 -75t147 -121t61 -200q0 -190 -134 -311t-350 -121q-156 0 -282 30v320h136q16 -94 22 -160l2 -12l10 -2 q66 -14 120 -14q120 0 196 59t76 175q0 74 -43 126t-109 78t-141 61t-141 72t-109 112t-43 181z" />
<glyph unicode="T" horiz-adv-x="1112" d="M36 1034v334h1040v-334h-132q-22 120 -26 168l-2 14h-268v-1068l12 -2q64 -4 156 -24v-106h-520v106q92 20 156 24l12 2v1068h-270l-2 -14q-6 -66 -24 -168h-132z" />
<glyph unicode="U" horiz-adv-x="1398" d="M54 1242v110h474v-110q-70 -16 -136 -22h-14v-748q0 -162 70 -250t250 -88q170 0 249 84t79 282v720h-12q-74 6 -138 22v110h472v-110q-68 -14 -122 -22l-14 -2v-704q0 -534 -528 -534q-274 0 -385 127t-111 349v762l-12 2q-54 8 -122 22z" />
<glyph unicode="V" horiz-adv-x="1324" d="M14 1258v110h476v-108q-66 -16 -136 -22l-18 -2l230 -710q58 -180 84 -280l2 -12h28l2 12q32 144 84 294l238 696l-20 2q-68 6 -134 22v108h460v-110q-38 -10 -102 -18l-10 -2l-426 -1222h-226l-418 1222l-10 2q-68 8 -104 18z" />
<glyph unicode="W" horiz-adv-x="1936" d="M16 1258v110h472v-108q-70 -16 -140 -22l-18 -2l174 -696q24 -100 50 -272l2 -14h28l2 14q24 152 52 260l228 840h218l234 -840q28 -104 52 -254l2 -12h28l2 12q24 146 46 240l172 722l-16 2q-74 6 -138 22v108h458v-110q-36 -10 -104 -18l-10 -2l-308 -1222h-248 l-226 842q-30 118 -50 258l-2 14h-28l-2 -14q-14 -128 -50 -254l-224 -846h-234l-310 1222l-10 2q-68 10 -102 18z" />
<glyph unicode="X" horiz-adv-x="1346" d="M22 16v106q76 16 124 20l6 2l404 560l-384 536h-8q-46 4 -118 20v108h516v-110q-70 -16 -116 -18l-26 -2l268 -408l272 408l-26 2q-46 2 -116 18v110h484v-108q-62 -12 -126 -22l-6 -2l-378 -526l410 -566l6 -2q68 -8 120 -18v-108h-520v110q60 14 110 16l26 2l-288 438 l-288 -438l26 -2q60 -4 116 -16v-110h-488z" />
<glyph unicode="Y" horiz-adv-x="1170" d="M14 1258v110h464v-110q-72 -16 -118 -20l-22 -2l150 -342q68 -156 86 -206l4 -10h24l4 10l94 216l148 332l-20 2q-48 4 -120 20v110h450v-110q-36 -10 -104 -18h-8l-372 -756v-336l14 -2q64 -4 156 -24v-106h-524v106q92 20 158 24l12 2v336l-364 754l-8 2 q-68 10 -104 18z" />
<glyph unicode="Z" horiz-adv-x="1040" d="M88 16v150l536 874q46 76 96 148l20 26h-32q-104 -4 -228 -4h-216l-2 -14q-6 -58 -22 -152h-136v324h848v-158l-566 -902l-70 -110l-20 -28l34 4q34 4 248 4h218l2 12q10 72 24 162h132v-336h-866z" />
<glyph unicode="[" horiz-adv-x="662" d="M178 -396v1966h394v-142h-220v-1680h220v-144h-394z" />
<glyph unicode="\" horiz-adv-x="840" d="M74 1368h170l526 -1352h-176z" />
<glyph unicode="]" horiz-adv-x="662" d="M92 -252h220v1680h-220v142h394v-1966h-394v144z" />
<glyph unicode="^" horiz-adv-x="1094" d="M136 780l326 588h154l340 -584l-132 -68l-290 540l-276 -538z" />
<glyph unicode="_" horiz-adv-x="1024" d="M16 -358h992v-142h-992v142z" />
<glyph unicode="`" horiz-adv-x="758" d="M206 1370l82 126l298 -210l-68 -100z" />
<glyph unicode="a" horiz-adv-x="1056" d="M88 232q0 170 152 265t410 97h14v90q0 106 -44 162t-158 56q-74 0 -164 -24l-10 -2l-2 -12q-4 -38 -20 -136h-108v262q160 50 326 50q202 0 282 -87t80 -253v-554l12 -2q80 -14 158 -20v-110q-160 -16 -272 -16q-12 0 -36 1t-36 1q0 112 10 176v8l-22 24l-8 -22 q-32 -92 -111 -149t-185 -57q-124 0 -196 67t-72 185zM268 262q0 -64 41 -104t107 -40q106 0 174 92t68 212v36h-14q-376 0 -376 -196z" />
<glyph unicode="b" horiz-adv-x="1100" d="M2 1376v106q168 16 284 16q14 0 39 -1t37 -1v-454q0 -114 -18 -192l-4 -18h32l4 8q36 92 113 145t179 53q170 0 262 -124t92 -354q0 -266 -137 -421t-373 -155q-184 0 -332 40v1330l-12 2q-80 14 -166 20zM362 152l10 -2q66 -24 156 -24q136 0 215 101t79 313 q0 346 -208 346q-114 0 -183 -118t-69 -274v-342z" />
<glyph unicode="c" horiz-adv-x="850" d="M78 474q0 252 122 406t354 154q124 0 226 -30v-286h-110q-12 64 -20 140l-2 12l-10 2q-56 14 -110 14q-116 0 -185 -103t-69 -275q0 -366 278 -366q110 0 222 44l12 -156q-146 -46 -276 -46q-194 0 -313 116t-119 374z" />
<glyph unicode="d" horiz-adv-x="1130" d="M78 458q0 264 136 420t366 156q40 0 144 -8l16 -2v330l-12 2q-78 14 -156 20v106q160 16 268 16q14 0 41 -1t39 -1v-1352l12 -2q80 -14 158 -20v-108q-156 -16 -272 -16q-14 0 -38 1t-36 1q0 104 14 176l2 18h-30l-4 -8q-38 -94 -115 -150t-181 -56q-172 0 -262 126 t-90 352zM278 478q0 -348 206 -348q114 0 182 122t74 276v340l-12 4q-70 18 -156 18q-136 0 -215 -100t-79 -312z" />
<glyph unicode="e" horiz-adv-x="984" d="M78 502q0 236 117 386t315 150q192 0 290 -123t98 -315q0 -40 -6 -90h-620v-14v-20q0 -354 294 -354q140 0 276 58l16 -140q-146 -60 -324 -60q-456 0 -456 522zM274 634h434v14v12q0 114 -57 181t-149 67q-90 0 -150 -70t-76 -186z" />
<glyph unicode="f" horiz-adv-x="690" d="M24 878v140h216v94q0 202 87 300t269 98q68 0 154 -16l-14 -148q-62 16 -128 16q-198 0 -198 -246v-98h252v-140h-252v-716h12q56 -4 154 -24v-108h-514v108q96 20 164 24h14v716h-216z" />
<glyph unicode="g" horiz-adv-x="1076" d="M78 -240q0 80 45 147t111 101l26 14l-26 14q-92 46 -92 140q0 54 29 99t77 69l26 12l-26 16q-142 84 -142 282q0 164 114 274t312 110q70 0 154 -20h326v-144h-182l32 -28q64 -54 64 -162q0 -166 -109 -268t-305 -102q-60 0 -102 12l-4 2l-6 -2q-62 -34 -62 -100 q0 -54 43 -74t129 -20h164q156 0 241 -71t85 -203q0 -160 -146 -271t-370 -111q-190 0 -298 73t-108 211zM264 -200q0 -88 71 -137t181 -49q138 0 217 58t79 156q0 70 -50 113t-144 43h-178q-42 0 -52 2h-4l-6 -2q-114 -66 -114 -184zM288 664q0 -106 60 -166t170 -60 q104 0 166 59t62 165t-59 168t-165 62t-170 -64t-64 -164z" />
<glyph unicode="h" horiz-adv-x="1218" d="M40 1376v106q168 16 284 16q12 0 38 -1t38 -1v-446q0 -132 -16 -202v-8l22 -24l8 20q42 94 124 148t194 54q280 0 280 -310v-566h14q70 -6 156 -24v-108h-354v640q0 106 -34 161t-124 55q-116 0 -193 -112t-77 -270v-342h14q68 -6 136 -22v-110h-510v108q96 20 164 24h16 v1192l-14 2q-80 14 -166 20z" />
<glyph unicode="i" horiz-adv-x="632" d="M58 16v106q96 20 164 24l14 2v712l-14 4q-62 10 -164 18v108q146 14 284 14h80v-856l14 -2q84 -6 156 -22v-108h-534zM204 1322q0 52 36 87t88 35t89 -35t37 -87q0 -50 -37 -86t-89 -36t-88 35t-36 87z" />
<glyph unicode="j" horiz-adv-x="582" d="M-68 -500l12 156q48 -16 118 -16q96 0 135 50t39 178v978l-12 2q-80 14 -166 20v106q168 16 286 16q12 0 38 -1t40 -1v-1100q0 -204 -81 -303t-279 -99q-56 0 -130 14zM204 1322q0 50 37 86t89 36t89 -35t37 -87q0 -50 -37 -86t-89 -36t-89 36t-37 86z" />
<glyph unicode="k" horiz-adv-x="1118" d="M40 1376v106q168 16 284 16q14 0 39 -1t37 -1v-910v-56v-368h12q62 -6 122 -22v-110h-494v108q96 20 164 24h16v1192l-14 2q-80 14 -166 20zM400 514l20 26l-20 30v-56zM420 540l278 332l-28 4q-58 6 -90 16v110h468v-110q-54 -12 -126 -18l-6 -2l-286 -320l300 -402 l6 -2q84 -12 144 -24v-108h-292z" />
<glyph unicode="l" horiz-adv-x="616" d="M40 1376v106q168 16 286 16q14 0 40 -1t40 -1v-1334h14q70 -6 156 -24v-108h-536v108q96 20 164 24h16v1192l-14 2q-80 14 -166 20z" />
<glyph unicode="m" horiz-adv-x="1848" d="M58 30v108q96 20 164 24h14v714l-14 2q-80 14 -164 20v108q146 14 280 14q12 0 36 -1t36 -1q0 -102 -12 -180l-2 -8l22 -24l10 20q42 98 128 155t196 57q124 0 185 -63t75 -143l8 -48l20 44q38 84 120 147t200 63q282 0 282 -320v-556h14q64 -4 156 -24v-108h-356v634 q0 108 -34 165t-122 57q-108 0 -190 -109t-82 -275v-340h14q74 -6 140 -22v-110h-336v636q0 104 -33 162t-123 58q-112 0 -191 -111t-79 -273v-340h12q76 -6 142 -22v-110h-516z" />
<glyph unicode="n" horiz-adv-x="1234" d="M58 30v108q96 20 164 24h14v714l-14 2q-80 14 -164 20v108q146 14 278 14q12 0 36 -1t36 -1q0 -92 -14 -180l-2 -12l26 -14l6 14q42 96 126 154t198 58q280 0 280 -310v-566h14q64 -4 156 -24v-108h-354v640q0 104 -34 160t-124 56q-116 0 -193 -112t-77 -268v-344h14 q72 -6 138 -22v-110h-510z" />
<glyph unicode="o" horiz-adv-x="1062" d="M74 496q0 234 133 388t343 154q200 0 318 -126t118 -384q0 -236 -134 -392t-340 -156q-204 0 -321 128t-117 388zM270 518q0 -186 67 -283t193 -97q112 0 186 97t74 279q0 178 -66 274t-192 96q-108 0 -185 -94t-77 -272z" />
<glyph unicode="p" horiz-adv-x="1178" d="M54 -392q96 20 164 24h14v1240l-14 2q-80 14 -164 20v110q168 16 250 16q14 0 37 -1t35 -1q0 -106 -14 -176l-2 -20h32l6 10q44 96 131 151t207 55q178 0 272 -122t94 -352q-22 -270 -159 -420t-373 -150q-82 0 -142 12l-16 4v-378h12q64 -4 156 -24v-108h-526v108z M412 182l10 -4q68 -20 156 -20q284 0 326 396q0 334 -230 334q-132 0 -206 -117q-60 -94 -60 -208q0 -28 4 -57v-324z" />
<glyph unicode="q" horiz-adv-x="1080" d="M82 456q0 266 137 422t377 156q182 0 326 -26v-1376h14q62 -4 160 -24v-108h-522v108q92 20 154 24h14v366q0 114 12 186l2 10l-26 16l-6 -16q-36 -100 -113 -157t-175 -57q-172 0 -263 121t-91 355zM280 478q0 -348 208 -348q114 0 184 121t70 281v338l-12 4 q-66 18 -156 18q-136 0 -215 -101t-79 -313z" />
<glyph unicode="r" horiz-adv-x="756" d="M58 30v108q96 20 164 24h14v714l-14 2q-80 14 -164 20v108q146 14 276 14q12 0 33 -1t31 -1q-4 -110 -18 -208l-2 -18h26l2 10q70 238 294 238h24l-8 -184q-36 4 -52 4q-78 0 -131 -34t-80 -97t-38 -135t-11 -164v-268h12q58 -4 154 -24v-108h-512z" />
<glyph unicode="s" horiz-adv-x="834" d="M86 728q0 134 102 222t280 88q86 0 226 -28v-256h-108q-12 54 -20 134l-2 10l-12 2q-64 12 -98 12q-84 0 -132 -42t-48 -112q0 -64 49 -103t118 -61t138 -48t118 -83t49 -147q0 -144 -112 -240t-290 -96q-120 0 -236 26v268h110q16 -86 20 -134v-12l12 -2q68 -12 110 -12 q84 0 141 43t57 119q0 64 -49 102t-118 59t-138 47t-118 87t-49 157z" />
<glyph unicode="t" horiz-adv-x="732" d="M8 868v142h194v336l188 50v-388h268v-142h-266v-516q0 -118 31 -165t117 -47q64 0 118 12v-148q-112 -20 -188 -20q-156 0 -212 67t-56 235v584h-194z" />
<glyph unicode="u" horiz-adv-x="1212" d="M40 868v106q156 16 276 16q14 0 39 -1t37 -1v-640q0 -104 35 -160t125 -56q116 0 192 110t76 268v338l-12 2q-88 14 -138 18v106q118 16 248 16q58 0 86 -2v-846l12 -2q80 -14 158 -20v-108q-140 -14 -272 -14q-12 0 -36 1t-34 1q0 88 14 180l2 12l-28 14l-6 -14 q-44 -98 -128 -155t-198 -57q-278 0 -278 310v556l-12 2q-80 14 -158 20z" />
<glyph unicode="v" horiz-adv-x="1088" d="M16 892v110h440v-110q-34 -8 -106 -16l-20 -2l142 -438q24 -70 62 -218l4 -12h24l2 12q38 154 58 214l146 442l-18 2q-84 10 -108 16v110h434v-110q-10 -2 -108 -18l-10 -2l-296 -856h-238l-290 856l-10 2q-12 2 -34 5t-40 6t-34 7z" />
<glyph unicode="w" horiz-adv-x="1684" d="M14 892v110h442v-110q-38 -8 -106 -16l-18 -2l104 -400q60 -224 62 -232l2 -12h26l4 12q26 134 66 258l156 502h186l156 -502q46 -150 72 -260l4 -12h26l4 12q10 46 58 222l114 412l-18 2q-84 10 -106 16v110h424v-110l-108 -18l-10 -2l-264 -856h-218l-170 522 q-22 64 -56 214l-2 10h-26l-2 -12q-18 -84 -70 -254l-144 -480h-218l-252 856l-10 2z" />
<glyph unicode="x" horiz-adv-x="1050" d="M18 16v108q90 20 152 26l8 2l232 360l-218 354l-8 2q-72 6 -150 24v110h302l194 -370l200 370h286v-110q-76 -18 -152 -24l-8 -2l-212 -348l228 -366l8 -2q60 -6 150 -26v-108h-314l-202 378l-200 -378h-296z" />
<glyph unicode="y" horiz-adv-x="1090" d="M14 878v110h436v-110q-46 -12 -100 -18l-20 -2l132 -394q38 -114 74 -258l4 -12h24l2 12q30 122 88 300l116 352l-18 2q-56 6 -102 18v110h428v-110q-30 -6 -108 -20l-10 -2l-336 -974q-76 -226 -167 -313t-251 -87q-48 0 -132 12l12 160q62 -18 126 -18q80 0 134 51 t100 183l44 130h-68l-290 856l-10 2q-78 14 -108 20z" />
<glyph unicode="z" horiz-adv-x="868" d="M84 16v138l484 716h-32q-84 -4 -190 -4h-118l-2 -14q-8 -64 -20 -126h-112v276h674v-138l-478 -704h32q44 2 192 2h132l2 14q6 68 18 130h112v-290h-694z" />
<glyph unicode="{" horiz-adv-x="716" d="M72 576v138q116 10 164 60t48 176v214q0 200 75 303t253 103h24v-142q-106 -2 -143 -60t-37 -200v-212q0 -262 -176 -294l-12 -2v-28l12 -2q176 -28 176 -302v-320q0 -142 37 -200t143 -60v-144h-24q-176 0 -252 98t-76 310v322q0 126 -50 179t-162 63z" />
<glyph unicode="|" horiz-adv-x="568" d="M210 -496v2016h144v-2016h-144z" />
<glyph unicode="}" horiz-adv-x="712" d="M92 -252q106 2 143 60t37 200v320q0 274 174 302l14 2v28l-14 2q-174 24 -174 288v218q0 142 -37 200t-143 60v142h22q178 0 254 -103t76 -303v-208q0 -132 48 -183t162 -59v-138q-114 -8 -162 -64t-48 -178v-322q0 -212 -76 -310t-254 -98h-22v144z" />
<glyph unicode="~" horiz-adv-x="1178" d="M110 598q124 104 266 104q100 0 225 -62t203 -62q96 0 206 88l60 -128q-116 -120 -274 -120q-98 0 -232 62t-206 62q-100 0 -192 -76z" />
<glyph unicode="&#xa1;" horiz-adv-x="620" d="M180 904q0 52 36 87t88 35q54 0 90 -35t36 -87t-36 -87t-90 -35q-52 0 -88 35t-36 87zM196 -422l26 1064h156l30 -1064h-212z" />
<glyph unicode="&#xa2;" horiz-adv-x="972" d="M100 556q0 192 100 323t274 161l12 2v186h138v-180h14q100 -2 210 -32v-286h-110q-12 62 -22 146l-2 10l-10 4q-62 14 -118 14q-132 0 -211 -90t-79 -246q0 -148 76 -236t240 -88q112 0 232 48l12 -158q-124 -38 -218 -48h-14v-210h-138v214l-14 2q-182 20 -277 141 t-95 323z" />
<glyph unicode="&#xa3;" horiz-adv-x="1080" d="M130 16v142q118 80 172 158t54 190q0 12 -2 33t-6 57t-6 68v14h-208v138h192l-2 18q-22 204 -22 234q0 194 92 279t282 85q114 0 206 -20v-280h-110q-16 76 -24 136l-2 12h-12q-44 6 -60 6q-88 0 -136 -55t-48 -155q0 -20 24 -246v-14h276v-138h-262l2 -16q8 -64 8 -128 q0 -108 -41 -186t-127 -156l-36 -32l48 4q86 10 144 10h274l2 12q8 70 26 160h128v-330h-826z" />
<glyph unicode="&#xa4;" horiz-adv-x="1138" d="M94 458q0 258 140 409t390 151q176 0 342 -26v-1050q0 -86 -23 -158t-78 -140t-164 -106t-265 -38q-160 0 -284 34l14 176q146 -54 286 -54q156 0 243 66t87 234v68q0 100 12 162l2 10l-30 16l-6 -16q-40 -94 -121 -147t-183 -53q-176 0 -269 117t-93 345zM294 480 q0 -334 216 -334q122 0 196 115t74 269v324l-12 2q-90 20 -166 20q-144 0 -226 -96t-82 -300z" />
<glyph unicode="&#xa5;" horiz-adv-x="1230" d="M34 1258v110h464v-110q-72 -14 -124 -20l-22 -2l152 -316l44 -90q38 -78 54 -116l4 -10h24l4 8q18 40 59 120t51 102l150 302l-22 2q-54 4 -126 20v110h452v-110q-38 -10 -102 -18h-8l-326 -612h284v-96h-338v-164h338v-98h-338v-134l14 -2q68 -4 164 -24v-94h-548v94 q96 20 164 24l16 2v134h-336v98h336v164h-336v96h280l-316 610l-8 2q-34 4 -104 18z" />
<glyph unicode="&#xa7;" horiz-adv-x="1026" d="M150 710q0 84 36 157t96 119l12 8l-10 12q-58 82 -58 186q0 136 97 227t289 91q76 0 130 -12l-12 -152q-56 14 -124 14q-178 0 -178 -160q0 -56 46 -120t110 -129l129 -135q65 -70 111 -160t46 -184q0 -80 -37 -153t-95 -119l-12 -8l10 -12q64 -86 64 -194 q0 -128 -101 -223t-305 -95q-70 0 -144 14l14 158q64 -18 138 -18q96 0 144 47t48 119q0 58 -46 122t-111 128l-130 133q-65 69 -111 158t-46 181zM320 738q0 -86 67 -178t233 -262l10 -10l10 10q62 50 62 146q0 54 -29 111t-61 96t-101 115l-107 120l-10 12l-12 -10 q-62 -50 -62 -150z" />
<glyph unicode="&#xa8;" horiz-adv-x="1118" d="M232 1336q0 46 31 76t77 30t78 -31t32 -75q0 -46 -32 -78t-78 -32t-77 32t-31 78zM634 1336q0 44 32 75t78 31q44 0 75 -31t31 -75q0 -46 -31 -78t-75 -32q-46 0 -78 32t-32 78z" />
<glyph unicode="&#xa9;" horiz-adv-x="1552" d="M96 684q0 280 198 478t480 198t480 -197t198 -477t-199 -478t-479 -198q-286 0 -482 196t-196 478zM234 686q0 -226 158 -385t382 -159t382 158t158 384q0 224 -158 384t-382 160t-382 -158t-158 -384zM458 672q0 158 85 261t269 103q70 0 144 -16v-222h-82 q-8 34 -16 106l-2 14h-12q-36 4 -58 4q-180 0 -180 -234q0 -110 44 -172t158 -62q80 0 146 22l8 -112q-92 -26 -182 -26q-322 0 -322 334z" />
<glyph unicode="&#xaa;" horiz-adv-x="850" d="M104 854q0 114 106 177t292 65h16v52q0 128 -148 128q-56 0 -108 -14l-10 -2l-2 -10l-12 -90h-86v186q124 40 236 40q154 0 216 -59t62 -171v-334l14 -2q6 0 51 -6t67 -8v-92q-120 -14 -238 -14q-6 0 -17 1t-17 1q0 50 8 92l2 12l-30 14l-6 -16q-18 -46 -75 -81t-125 -35 q-98 0 -147 45t-49 121zM248 880q0 -38 27 -62t71 -24q80 0 126 61t46 119v36h-16q-254 0 -254 -130z" />
<glyph unicode="&#xab;" horiz-adv-x="1064" d="M118 506l218 364l140 -70l-182 -294l182 -286l-146 -74zM534 506l240 358l134 -70l-198 -288l198 -280l-142 -74z" />
<glyph unicode="&#xac;" horiz-adv-x="1110" d="M90 464v148h898v-464h-162v316h-736z" />
<glyph unicode="&#xad;" horiz-adv-x="678" d="M110 444v144h460v-144h-460z" />
<glyph unicode="&#xae;" horiz-adv-x="1152" d="M128 1088q0 186 131 314t317 128q190 0 320 -127t130 -315q0 -182 -133 -313t-317 -131q-190 0 -319 128t-129 316zM236 1090q0 -140 100 -243t240 -103t240 100t100 242t-99 244t-241 102q-140 0 -240 -101t-100 -241zM402 876v36q20 8 38 12l14 4v324l-10 4q-6 2 -21 5 t-21 5v40h36q24 0 77 2t73 2q156 0 156 -114q0 -86 -78 -114l-20 -8l14 -16q16 -22 26 -46l38 -86h8q4 0 32 -12v-38h-106l-76 180h-56v-130l12 -2q18 -4 32 -10v-38h-168zM526 1106h14l32 -2h4q44 0 66 25t22 55q0 68 -78 68h-2q-4 2 -10 2q-36 0 -44 -8l-4 -4v-136z" />
<glyph unicode="&#xaf;" horiz-adv-x="750" d="M158 1262v132h418v-132h-418z" />
<glyph unicode="&#xb0;" horiz-adv-x="780" d="M114 1240q0 116 83 187t193 71q136 0 201 -71t65 -181q0 -118 -83 -189t-197 -71q-122 0 -192 68t-70 186zM250 1244q0 -70 38 -110t98 -40t98 43t38 107q0 58 -33 102t-101 44q-60 0 -99 -41t-39 -105z" />
<glyph unicode="&#xb1;" horiz-adv-x="1188" d="M112 568v150h394v396h178v-396h394v-150h-394v-400h-178v400h-394zM122 26h946v-154h-946v154z" />
<glyph unicode="&#xb2;" horiz-adv-x="924" d="M94 30v154l242 196q130 118 185 194t55 158q0 88 -47 140t-135 52q-72 0 -136 -26l-10 -4v-10q-4 -48 -20 -142h-110v272q154 58 306 58q168 0 265 -86t97 -224q0 -104 -60 -195t-188 -199l-170 -152l-14 -32l24 2q90 8 452 8v-164h-736z" />
<glyph unicode="&#xb3;" horiz-adv-x="884" d="M82 -346l18 162q72 -22 172 -22q140 0 222 68t82 194q0 42 -12 79t-44 77t-99 63t-163 23q-50 0 -106 -6v142q196 2 300 75t104 205q0 96 -50 151t-138 55q-50 0 -120 -22l-8 -2l-2 -12q-8 -80 -20 -144h-108v274q144 56 278 56q180 0 273 -90t93 -234q0 -108 -65 -195 t-171 -129l-8 -2v-26l12 -2q122 -26 191 -110t69 -202q0 -198 -147 -321t-375 -123q-96 0 -178 18zM136 418h10h6v16z" />
<glyph unicode="&#xb4;" horiz-adv-x="800" d="M216 1286l296 208l80 -122l-310 -186z" />
<glyph unicode="&#xb5;" horiz-adv-x="1198" d="M166 -500v1488h188v-618q0 -244 218 -244q120 0 196 108t76 276v478h186v-988h-178q0 100 12 174l2 12l-30 14l-6 -16q-28 -82 -97 -141t-187 -59q-112 0 -166 64l-8 8l-24 -12v-10q6 -56 6 -212v-322h-188z" />
<glyph unicode="&#xb6;" horiz-adv-x="1186" d="M140 940q0 186 121 304t317 122v-860q-218 2 -328 125t-110 309zM578 492l16 14h-4h-12v-14zM620 -40h146v1408h300v-142h-140v-1408h-306v142z" />
<glyph unicode="&#xb7;" horiz-adv-x="512" d="M122 588q0 56 39 95t95 39t95 -39t39 -95t-39 -94t-95 -38t-95 38t-39 94z" />
<glyph unicode="&#xb8;" horiz-adv-x="818" d="M310 -416q110 84 110 192q0 52 -24 104h170q28 -62 28 -116q0 -146 -206 -248z" />
<glyph unicode="&#xb9;" horiz-adv-x="728" d="M40 942l296 110h156v-888h14q82 -6 164 -24v-110h-594v110q90 18 206 24h14v724l-224 -94z" />
<glyph unicode="&#xba;" horiz-adv-x="864" d="M106 1028q0 162 94 261t240 99q134 0 223 -76t89 -262q0 -164 -94 -263t-246 -99q-306 0 -306 340zM254 1040q0 -98 41 -163t129 -65q78 0 128 57t50 169q0 100 -41 162t-131 62q-72 0 -124 -56t-52 -166z" />
<glyph unicode="&#xbb;" horiz-adv-x="1064" d="M158 224l196 286l-196 282l140 72l232 -354l-238 -358zM590 216l182 294l-182 288l146 72l212 -360l-218 -364z" />
<glyph unicode="&#xbc;" horiz-adv-x="2666" d="M40 942l296 110h156v-888h14q82 -6 164 -24v-110h-594v110q90 18 206 24h14v724l-224 -94zM714 -164l860 1698l152 -70l-860 -1700zM1628 178l524 878h242v-874h234v-166h-234v-260h14q68 -4 156 -24v-102h-512v102q92 20 154 24h14v260h-560zM1796 178l28 2q102 2 384 2 h16v676h-26z" />
<glyph unicode="&#xbd;" horiz-adv-x="2524" d="M40 942l296 110h156v-888h14q82 -6 164 -24v-110h-594v110q90 18 206 24h14v724l-224 -94zM714 -164l860 1698l152 -70l-860 -1700zM1694 30v154l242 196q130 118 185 194t55 158q0 88 -47 140t-135 52q-72 0 -136 -26l-10 -4v-10q-4 -48 -20 -142h-110v272 q154 58 306 58q168 0 265 -86t97 -224q0 -104 -60 -195t-188 -199l-170 -152l-14 -32l24 2q90 8 452 8v-164h-736z" />
<glyph unicode="&#xbe;" horiz-adv-x="2822" d="M82 -346l18 162q72 -22 172 -22q140 0 222 68t82 194q0 42 -12 79t-44 77t-99 63t-163 23q-50 0 -106 -6v142q196 2 300 75t104 205q0 96 -50 151t-138 55q-50 0 -120 -22l-8 -2l-2 -12q-8 -80 -20 -144h-108v274q144 56 278 56q180 0 273 -90t93 -234q0 -108 -65 -195 t-171 -129l-8 -2v-26l12 -2q122 -26 191 -110t69 -202q0 -198 -147 -321t-375 -123q-96 0 -178 18zM136 418h10h6v16zM870 -164l860 1698l152 -70l-860 -1700zM1784 178l524 878h242v-874h234v-166h-234v-260h14q68 -4 156 -24v-102h-512v102q92 20 154 24h14v260h-560z M1952 178l28 2q102 2 384 2h16v676h-26z" />
<glyph unicode="&#xbf;" horiz-adv-x="872" d="M126 -36q0 76 33 140t80 110l94 92q47 46 80 106t33 130q0 42 -16 100h182q24 -70 24 -138q0 -72 -31 -134t-76 -106l-89 -86q-44 -42 -75 -91t-31 -101q0 -104 109 -171t281 -77l-24 -170q-272 18 -423 131t-151 265zM384 904q0 52 36 87t88 35q54 0 90 -35t36 -87 t-36 -87t-90 -35q-52 0 -88 35t-36 87z" />
<glyph unicode="&#xc0;" d="M14 16v108q38 10 106 18l8 2l430 1224h238l434 -1224l10 -2q68 -8 106 -18v-108h-480v106q64 16 138 22l18 2l-78 224h-550l-76 -224l18 -2q74 -6 138 -22v-106h-460zM408 1686l82 126l298 -210l-68 -100zM440 516h458l-154 438q-36 98 -60 210l-2 12h-28l-2 -12 q-18 -92 -62 -216z" />
<glyph unicode="&#xc1;" d="M14 16v108q38 10 106 18l8 2l430 1224h238l434 -1224l10 -2q68 -8 106 -18v-108h-480v106q64 16 138 22l18 2l-78 224h-550l-76 -224l18 -2q74 -6 138 -22v-106h-460zM440 516h458l-154 438q-36 98 -60 210l-2 12h-28l-2 -12q-18 -92 -62 -216zM556 1602l296 208l80 -122 l-310 -186z" />
<glyph unicode="&#xc2;" d="M14 16v108q38 10 106 18l8 2l430 1224h238l434 -1224l10 -2q68 -8 106 -18v-108h-480v106q64 16 138 22l18 2l-78 224h-550l-76 -224l18 -2q74 -6 138 -22v-106h-460zM400 1614l270 172l280 -168l-64 -104l-218 130l-212 -130zM440 516h458l-154 438q-36 98 -60 210 l-2 12h-28l-2 -12q-18 -92 -62 -216z" />
<glyph unicode="&#xc3;" d="M14 16v108q38 10 106 18l8 2l430 1224h238l434 -1224l10 -2q68 -8 106 -18v-108h-480v106q64 16 138 22l18 2l-78 224h-550l-76 -224l18 -2q74 -6 138 -22v-106h-460zM338 1690q86 74 184 74q70 0 157 -50t147 -50q72 0 136 54l34 -114q-80 -72 -182 -72q-76 0 -163 49 t-147 49q-70 0 -130 -54zM440 516h458l-154 438q-36 98 -60 210l-2 12h-28l-2 -12q-18 -92 -62 -216z" />
<glyph unicode="&#xc4;" d="M14 16v108q38 10 106 18l8 2l430 1224h238l434 -1224l10 -2q68 -8 106 -18v-108h-480v106q64 16 138 22l18 2l-78 224h-550l-76 -224l18 -2q74 -6 138 -22v-106h-460zM366 1626q0 46 31 76t77 30t78 -31t32 -75q0 -46 -32 -78t-78 -32t-77 32t-31 78zM440 516h458 l-154 438q-36 98 -60 210l-2 12h-28l-2 -12q-18 -92 -62 -216zM768 1626q0 44 32 75t78 31q44 0 75 -31t31 -75q0 -46 -31 -78t-75 -32q-46 0 -78 32t-32 78z" />
<glyph unicode="&#xc5;" d="M14 16v108q38 10 106 18l8 2l430 1224h238l434 -1224l10 -2q68 -8 106 -18v-108h-480v106q64 16 138 22l18 2l-78 224h-550l-76 -224l18 -2q74 -6 138 -22v-106h-460zM440 516h458l-154 438q-36 98 -60 210l-2 12h-28l-2 -12q-18 -92 -62 -216zM446 1580q0 94 68 157 t164 63q98 0 163 -63t65 -157q0 -92 -67 -157t-161 -65q-98 0 -165 63t-67 159zM552 1580q0 -54 36 -91t90 -37q52 0 87 37t35 91t-35 91t-87 37q-54 0 -90 -37t-36 -91z" />
<glyph unicode="&#xc6;" horiz-adv-x="1636" d="M-64 16v108q36 8 104 18l8 2l578 1090l-24 2q-66 4 -158 24v108h1052v-302h-132q-16 82 -22 142l-2 14h-346v-444h284l2 12q12 80 22 114h114v-386h-114q-8 28 -22 114l-2 12h-284v-480h358l2 14q10 70 24 150h134v-312h-856v108q64 16 138 22l14 2v222h-454l-114 -224 l22 -2q76 -8 122 -20v-108h-448zM420 516h388v702h-34l-2 -10q-72 -170 -136 -290z" />
<glyph unicode="&#xc7;" horiz-adv-x="1112" d="M86 636q0 334 166 532t484 198q136 0 302 -36v-336h-138q-10 62 -22 166v10l-10 2q-88 22 -174 22q-190 0 -290 -143t-100 -379q0 -516 442 -516q148 0 292 56l12 -172q-174 -58 -352 -58q-300 0 -456 171t-156 483zM502 -416q110 84 110 192q0 52 -24 104h170 q28 -62 28 -116q0 -146 -206 -248z" />
<glyph unicode="&#xc8;" horiz-adv-x="998" d="M54 16v106q96 20 164 24l14 2v1086l-14 2q-68 4 -164 24v108h854v-302h-134q-16 82 -22 142l-2 14h-338v-444h272l2 12q12 80 22 114h114v-386h-114q-16 58 -22 112l-2 14h-272v-480h340l2 14q6 72 24 150h134v-312h-858zM256 1686l82 126l298 -210l-68 -100z" />
<glyph unicode="&#xc9;" horiz-adv-x="998" d="M54 16v106q96 20 164 24l14 2v1086l-14 2q-68 4 -164 24v108h854v-302h-134q-16 82 -22 142l-2 14h-338v-444h272l2 12q12 80 22 114h114v-386h-114q-16 58 -22 112l-2 14h-272v-480h340l2 14q6 72 24 150h134v-312h-858zM428 1602l296 208l80 -122l-310 -186z" />
<glyph unicode="&#xca;" horiz-adv-x="998" d="M54 16v106q96 20 164 24l14 2v1086l-14 2q-68 4 -164 24v108h854v-302h-134q-16 82 -22 142l-2 14h-338v-444h272l2 12q12 80 22 114h114v-386h-114q-16 58 -22 112l-2 14h-272v-480h340l2 14q6 72 24 150h134v-312h-858zM250 1614l270 172l280 -168l-64 -104l-218 130 l-212 -130z" />
<glyph unicode="&#xcb;" horiz-adv-x="998" d="M54 16v106q96 20 164 24l14 2v1086l-14 2q-68 4 -164 24v108h854v-302h-134q-16 82 -22 142l-2 14h-338v-444h272l2 12q12 80 22 114h114v-386h-114q-16 58 -22 112l-2 14h-272v-480h340l2 14q6 72 24 150h134v-312h-858zM208 1626q0 46 31 76t77 30t78 -31t32 -75 q0 -46 -32 -78t-78 -32t-77 32t-31 78zM610 1626q0 44 32 75t78 31q44 0 75 -31t31 -75q0 -46 -31 -78t-75 -32q-46 0 -78 32t-32 78z" />
<glyph unicode="&#xcc;" horiz-adv-x="652" d="M48 16v106q96 20 162 24l16 2v1086l-16 2q-66 4 -162 24v108h548v-108q-96 -20 -164 -24l-14 -2v-1086l14 -2q68 -4 164 -24v-106h-548zM62 1700l84 126l294 -208l-66 -102z" />
<glyph unicode="&#xcd;" horiz-adv-x="652" d="M48 16v106q96 20 162 24l16 2v1086l-16 2q-66 4 -162 24v108h548v-108q-96 -20 -164 -24l-14 -2v-1086l14 -2q68 -4 164 -24v-106h-548zM186 1618l296 206l80 -122l-310 -184z" />
<glyph unicode="&#xce;" horiz-adv-x="652" d="M44 16v106q96 20 162 24l16 2v1086l-16 2q-66 4 -162 24v108h548v-108q-96 -20 -164 -24l-14 -2v-1086l14 -2q68 -4 164 -24v-106h-548zM44 1628l272 174l280 -170l-64 -102l-218 132l-212 -132z" />
<glyph unicode="&#xcf;" horiz-adv-x="652" d="M4 1642q0 46 32 78t78 32t78 -32t32 -78t-32 -77t-78 -31t-78 31t-32 77zM48 16v106q96 20 162 24l16 2v1086l-16 2q-66 4 -162 24v108h548v-108q-96 -20 -164 -24l-14 -2v-1086l14 -2q68 -4 164 -24v-106h-548zM408 1642q0 46 32 78t78 32q44 0 75 -32t31 -78t-31 -77 t-75 -31q-46 0 -78 31t-32 77z" />
<glyph unicode="&#xd1;" horiz-adv-x="1456" d="M54 16v106q96 20 164 24l14 2v1086l-14 2q-68 4 -164 24v108h438l456 -774q48 -80 152 -288l34 -66l-6 74q-14 220 -14 906v14l-14 2q-66 6 -130 22v110h466v-110q-66 -16 -124 -22l-14 -2v-1218h-260l-462 778q-62 104 -148 290q-6 10 -16 8q-12 -4 -12 -16 q12 -208 12 -680v-234v-14l14 -2q80 -8 138 -20v-110h-510zM438 1690q86 74 184 74q70 0 157 -50t147 -50q72 0 136 54l34 -114q-80 -72 -182 -72q-76 0 -163 49t-147 49q-70 0 -130 -54z" />
<glyph unicode="&#xd2;" horiz-adv-x="1348" d="M78 676q0 334 182 530t450 196q272 0 432 -178t160 -516q0 -334 -182 -531t-450 -197q-292 0 -442 185t-150 511zM284 702q0 -256 102 -405t300 -149q166 0 288 141t122 397q0 264 -107 407t-299 143q-170 0 -288 -142t-118 -392zM452 1686l82 126l298 -210l-68 -100z " />
<glyph unicode="&#xd3;" horiz-adv-x="1348" d="M78 676q0 334 182 530t450 196q272 0 432 -178t160 -516q0 -334 -182 -531t-450 -197q-292 0 -442 185t-150 511zM284 702q0 -256 102 -405t300 -149q166 0 288 141t122 397q0 264 -107 407t-299 143q-170 0 -288 -142t-118 -392zM586 1602l296 208l80 -122l-310 -186z " />
<glyph unicode="&#xd4;" horiz-adv-x="1348" d="M78 676q0 334 182 530t450 196q272 0 432 -178t160 -516q0 -334 -182 -531t-450 -197q-292 0 -442 185t-150 511zM284 702q0 -256 102 -405t300 -149q166 0 288 141t122 397q0 264 -107 407t-299 143q-170 0 -288 -142t-118 -392zM430 1614l270 172l280 -168l-64 -104 l-218 130l-212 -130z" />
<glyph unicode="&#xd5;" horiz-adv-x="1348" d="M78 676q0 334 182 530t450 196q272 0 432 -178t160 -516q0 -334 -182 -531t-450 -197q-292 0 -442 185t-150 511zM284 702q0 -256 102 -405t300 -149q166 0 288 141t122 397q0 264 -107 407t-299 143q-170 0 -288 -142t-118 -392zM356 1694q86 74 184 74q70 0 157 -50 t147 -50q72 0 136 54l34 -114q-80 -72 -182 -72q-76 0 -163 49t-147 49q-70 0 -130 -54z" />
<glyph unicode="&#xd6;" horiz-adv-x="1348" d="M78 676q0 334 182 530t450 196q272 0 432 -178t160 -516q0 -334 -182 -531t-450 -197q-292 0 -442 185t-150 511zM284 702q0 -256 102 -405t300 -149q166 0 288 141t122 397q0 264 -107 407t-299 143q-170 0 -288 -142t-118 -392zM388 1626q0 46 31 76t77 30t78 -31 t32 -75q0 -46 -32 -78t-78 -32t-77 32t-31 78zM790 1626q0 44 32 75t78 31q44 0 75 -31t31 -75q0 -46 -31 -78t-75 -32q-46 0 -78 32t-32 78z" />
<glyph unicode="&#xd8;" horiz-adv-x="1380" d="M76 678q0 336 178 530t448 194q68 0 122 -12l12 -2l70 194l128 -44l-66 -188l12 -6q150 -70 232 -234t82 -412q0 -330 -179 -524t-451 -194q-78 0 -136 14l-12 2l-70 -204l-130 44l70 202l-12 8q-298 154 -298 632zM272 696q0 -332 160 -456l16 -12l336 994l-18 2 q-38 6 -78 6q-30 0 -48 -2q-158 -16 -263 -156t-105 -376zM570 162l16 -6q44 -14 98 -14q4 0 10 1t10 1q170 8 282 148t112 390q0 348 -174 472l-16 10z" />
<glyph unicode="&#xd9;" horiz-adv-x="1368" d="M54 1242v110h474v-110q-70 -16 -136 -22h-14v-748q0 -162 70 -250t250 -88q170 0 249 84t79 282v720h-12q-74 6 -138 22v110h472v-110q-68 -14 -122 -22l-14 -2v-704q0 -534 -528 -534q-274 0 -385 127t-111 349v762l-12 2q-54 8 -122 22zM422 1686l82 126l298 -210 l-68 -100z" />
<glyph unicode="&#xda;" horiz-adv-x="1368" d="M54 1242v110h474v-110q-70 -16 -136 -22h-14v-748q0 -162 70 -250t250 -88q170 0 249 84t79 282v720h-12q-74 6 -138 22v110h472v-110q-68 -14 -122 -22l-14 -2v-704q0 -534 -528 -534q-274 0 -385 127t-111 349v762l-12 2q-54 8 -122 22zM606 1602l296 208l80 -122 l-310 -186z" />
<glyph unicode="&#xdb;" horiz-adv-x="1368" d="M54 1242v110h474v-110q-70 -16 -136 -22h-14v-748q0 -162 70 -250t250 -88q170 0 249 84t79 282v720h-12q-74 6 -138 22v110h472v-110q-68 -14 -122 -22l-14 -2v-704q0 -534 -528 -534q-274 0 -385 127t-111 349v762l-12 2q-54 8 -122 22zM422 1614l270 172l280 -168 l-64 -104l-218 130l-212 -130z" />
<glyph unicode="&#xdc;" horiz-adv-x="1368" d="M54 1242v110h474v-110q-70 -16 -136 -22h-14v-748q0 -162 70 -250t250 -88q170 0 249 84t79 282v720h-12q-74 6 -138 22v110h472v-110q-68 -14 -122 -22l-14 -2v-704q0 -534 -528 -534q-274 0 -385 127t-111 349v762l-12 2q-54 8 -122 22zM388 1626q0 46 31 76t77 30 t78 -31t32 -75q0 -46 -32 -78t-78 -32t-77 32t-31 78zM790 1626q0 44 32 75t78 31q44 0 75 -31t31 -75q0 -46 -31 -78t-75 -32q-46 0 -78 32t-32 78z" />
<glyph unicode="&#xdd;" horiz-adv-x="1170" d="M14 1258v110h464v-110q-72 -16 -118 -20l-22 -2l150 -342q68 -156 86 -206l4 -10h24l4 10l94 216l148 332l-20 2q-48 4 -120 20v110h450v-110q-36 -10 -104 -18h-8l-372 -756v-336l14 -2q64 -4 156 -24v-106h-524v106q92 20 158 24l12 2v336l-364 754l-8 2 q-68 10 -104 18zM520 1624l296 208l80 -122l-310 -186z" />
<glyph unicode="&#xdf;" horiz-adv-x="1310" d="M54 898v108q74 8 166 12h16v16q2 228 119 351t341 123q182 0 282 -80t100 -204q0 -70 -25 -120t-61 -79t-72 -55t-61 -62t-25 -86q0 -56 43 -99t105 -74t125 -67t106 -99t43 -149q0 -136 -100 -227t-284 -91q-90 0 -202 18v270h106q10 -56 18 -130v-10l10 -4q32 -8 82 -8 q94 0 136 44t42 114q0 58 -43 101t-104 72t-122 64t-104 97t-43 148q0 58 25 105t60 77l69 59q34 29 59 71t25 94q0 74 -57 120t-147 46q-266 0 -266 -354v-848h14q80 -8 124 -22v-110h-496v108q96 20 164 24h14v714l-14 2q-80 14 -168 20z" />
<glyph unicode="&#xe0;" horiz-adv-x="1026" d="M88 232q0 170 152 265t410 97h14v90q0 106 -44 162t-158 56q-74 0 -164 -24l-10 -2l-2 -12q-4 -38 -20 -136h-108v262q160 50 326 50q202 0 282 -87t80 -253v-554l12 -2q80 -14 158 -20v-110q-160 -16 -272 -16q-12 0 -36 1t-36 1q0 112 10 176v8l-22 24l-8 -22 q-32 -92 -111 -149t-185 -57q-124 0 -196 67t-72 185zM240 1370l82 126l298 -210l-68 -100zM268 262q0 -64 41 -104t107 -40q106 0 174 92t68 212v36h-14q-376 0 -376 -196z" />
<glyph unicode="&#xe1;" horiz-adv-x="1026" d="M88 232q0 170 152 265t410 97h14v90q0 106 -44 162t-158 56q-74 0 -164 -24l-10 -2l-2 -12q-4 -38 -20 -136h-108v262q160 50 326 50q202 0 282 -87t80 -253v-554l12 -2q80 -14 158 -20v-110q-160 -16 -272 -16q-12 0 -36 1t-36 1q0 112 10 176v8l-22 24l-8 -22 q-32 -92 -111 -149t-185 -57q-124 0 -196 67t-72 185zM268 262q0 -64 41 -104t107 -40q106 0 174 92t68 212v36h-14q-376 0 -376 -196zM374 1286l296 208l80 -122l-310 -186z" />
<glyph unicode="&#xe2;" horiz-adv-x="1026" d="M88 232q0 170 152 265t410 97h14v90q0 106 -44 162t-158 56q-74 0 -164 -24l-10 -2l-2 -12q-4 -38 -20 -136h-108v262q160 50 326 50q202 0 282 -87t80 -253v-554l12 -2q80 -14 158 -20v-110q-160 -16 -272 -16q-12 0 -36 1t-36 1q0 112 10 176v8l-22 24l-8 -22 q-32 -92 -111 -149t-185 -57q-124 0 -196 67t-72 185zM228 1298l270 172l280 -168l-64 -104l-218 130l-212 -130zM268 262q0 -64 41 -104t107 -40q106 0 174 92t68 212v36h-14q-376 0 -376 -196z" />
<glyph unicode="&#xe3;" horiz-adv-x="1026" d="M88 232q0 170 152 265t410 97h14v90q0 106 -44 162t-158 56q-74 0 -164 -24l-10 -2l-2 -12q-4 -38 -20 -136h-108v262q160 50 326 50q202 0 282 -87t80 -253v-554l12 -2q80 -14 158 -20v-110q-160 -16 -272 -16q-12 0 -36 1t-36 1q0 112 10 176v8l-22 24l-8 -22 q-32 -92 -111 -149t-185 -57q-124 0 -196 67t-72 185zM166 1374q86 74 184 74q70 0 157 -50t147 -50q72 0 136 54l34 -114q-80 -72 -182 -72q-76 0 -163 49t-147 49q-70 0 -130 -54zM268 262q0 -64 41 -104t107 -40q106 0 174 92t68 212v36h-14q-376 0 -376 -196z" />
<glyph unicode="&#xe4;" horiz-adv-x="1026" d="M88 232q0 170 152 265t410 97h14v90q0 106 -44 162t-158 56q-74 0 -164 -24l-10 -2l-2 -12q-4 -38 -20 -136h-108v262q160 50 326 50q202 0 282 -87t80 -253v-554l12 -2q80 -14 158 -20v-110q-160 -16 -272 -16q-12 0 -36 1t-36 1q0 112 10 176v8l-22 24l-8 -22 q-32 -92 -111 -149t-185 -57q-124 0 -196 67t-72 185zM188 1336q0 46 31 76t77 30t78 -31t32 -75q0 -46 -32 -78t-78 -32t-77 32t-31 78zM268 262q0 -64 41 -104t107 -40q106 0 174 92t68 212v36h-14q-376 0 -376 -196zM590 1336q0 44 32 75t78 31q44 0 75 -31t31 -75 q0 -46 -31 -78t-75 -32q-46 0 -78 32t-32 78z" />
<glyph unicode="&#xe5;" horiz-adv-x="1026" d="M88 232q0 170 152 265t410 97h14v90q0 106 -44 162t-158 56q-74 0 -164 -24l-10 -2l-2 -12q-4 -38 -20 -136h-108v262q160 50 326 50q202 0 282 -87t80 -253v-554l12 -2q80 -14 158 -20v-110q-160 -16 -272 -16q-12 0 -36 1t-36 1q0 112 10 176v8l-22 24l-8 -22 q-32 -92 -111 -149t-185 -57q-124 0 -196 67t-72 185zM266 1360q0 94 68 157t164 63q98 0 163 -63t65 -157q0 -92 -67 -157t-161 -65q-98 0 -165 63t-67 159zM268 262q0 -64 41 -104t107 -40q106 0 174 92t68 212v36h-14q-376 0 -376 -196zM372 1360q0 -54 36 -91t90 -37 q52 0 87 37t35 91t-35 91t-87 37q-54 0 -90 -37t-36 -91z" />
<glyph unicode="&#xe6;" horiz-adv-x="1584" d="M88 232q0 170 154 265t420 97h14v90q0 218 -210 218q-78 0 -168 -24l-10 -2l-2 -12q-4 -38 -20 -136h-108v262q160 50 332 50q216 0 298 -136l4 -6h18l4 6q42 60 119 97t169 37q200 0 298 -122t98 -316q0 -40 -6 -90h-636v-14q0 -4 -1 -10t-1 -10q0 -354 308 -354 q138 0 282 60l16 -142q-148 -60 -332 -60q-148 0 -249 56t-145 158l-8 20l-18 -20l-2 -2q-48 -90 -137 -151t-215 -61t-196 66t-70 186zM268 262q0 -64 42 -104t110 -40q112 0 184 92t72 212v36h-14q-394 0 -394 -196zM856 634h452v14v12q0 106 -58 169t-156 63 q-94 0 -156 -65t-78 -175z" />
<glyph unicode="&#xe7;" horiz-adv-x="820" d="M78 474q0 252 122 406t354 154q124 0 226 -30v-286h-110q-12 64 -20 140l-2 12l-10 2q-56 14 -110 14q-116 0 -185 -103t-69 -275q0 -366 278 -366q110 0 222 44l12 -156q-146 -46 -276 -46q-194 0 -313 116t-119 374zM320 -416q110 84 110 192q0 52 -24 104h170 q28 -62 28 -116q0 -146 -206 -248z" />
<glyph unicode="&#xe8;" horiz-adv-x="954" d="M78 502q0 236 117 386t315 150q192 0 290 -123t98 -315q0 -40 -6 -90h-620v-14v-20q0 -354 294 -354q140 0 276 58l16 -140q-146 -60 -324 -60q-456 0 -456 522zM258 1370l82 126l298 -210l-68 -100zM274 634h434v14v12q0 114 -57 181t-149 67q-90 0 -150 -70t-76 -186z " />
<glyph unicode="&#xe9;" horiz-adv-x="954" d="M78 502q0 236 117 386t315 150q192 0 290 -123t98 -315q0 -40 -6 -90h-620v-14v-20q0 -354 294 -354q140 0 276 58l16 -140q-146 -60 -324 -60q-456 0 -456 522zM274 634h434v14v12q0 114 -57 181t-149 67q-90 0 -150 -70t-76 -186zM384 1286l296 208l80 -122l-310 -186z " />
<glyph unicode="&#xea;" horiz-adv-x="954" d="M78 502q0 236 117 386t315 150q192 0 290 -123t98 -315q0 -40 -6 -90h-620v-14v-20q0 -354 294 -354q140 0 276 58l16 -140q-146 -60 -324 -60q-456 0 -456 522zM232 1298l270 172l280 -168l-64 -104l-218 130l-212 -130zM274 634h434v14v12q0 114 -57 181t-149 67 q-90 0 -150 -70t-76 -186z" />
<glyph unicode="&#xeb;" horiz-adv-x="954" d="M78 502q0 236 117 386t315 150q192 0 290 -123t98 -315q0 -40 -6 -90h-620v-14v-20q0 -354 294 -354q140 0 276 58l16 -140q-146 -60 -324 -60q-456 0 -456 522zM202 1336q0 46 31 76t77 30t78 -31t32 -75q0 -46 -32 -78t-78 -32t-77 32t-31 78zM274 634h434v14v12 q0 114 -57 181t-149 67q-90 0 -150 -70t-76 -186zM604 1336q0 44 32 75t78 31q44 0 75 -31t31 -75q0 -46 -31 -78t-75 -32q-46 0 -78 32t-32 78z" />
<glyph unicode="&#xec;" horiz-adv-x="632" d="M26 1384l86 128l296 -210l-68 -100zM40 16v106q96 20 164 24l14 2v712l-12 4q-60 10 -166 18v108q150 14 288 14h80v-856l14 -2q84 -6 156 -22v-108h-538z" />
<glyph unicode="&#xed;" horiz-adv-x="632" d="M48 16v106q96 20 162 24l16 2v712l-14 4q-62 10 -164 18v108q150 14 286 14h80v-856l14 -2q84 -6 156 -22v-108h-536zM166 1302l296 208l82 -124l-312 -184z" />
<glyph unicode="&#xee;" horiz-adv-x="632" d="M32 1312l272 174l278 -170l-62 -102l-220 130l-210 -130zM42 16v106q96 20 164 24l14 2v712l-12 4q-60 10 -166 18v108q150 14 286 14h80v-856l14 -2q84 -6 156 -22v-108h-536z" />
<glyph unicode="&#xef;" horiz-adv-x="632" d="M-8 1350q0 46 32 77t78 31q44 0 75 -31t31 -77t-30 -77t-76 -31t-78 31t-32 77zM48 16v106q96 20 162 24l16 2v712l-14 4q-62 10 -164 18v108q150 14 286 14h80v-856l14 -2q84 -6 156 -22v-108h-536zM396 1350q0 46 31 77t75 31q46 0 78 -31t32 -77t-32 -77t-78 -31 t-76 31t-30 77z" />
<glyph unicode="&#xf1;" horiz-adv-x="1204" d="M58 30v108q96 20 164 24h14v714l-14 2q-80 14 -164 20v108q146 14 278 14q12 0 36 -1t36 -1q0 -92 -14 -180l-2 -12l26 -14l6 14q42 96 126 154t198 58q280 0 280 -310v-566h14q64 -4 156 -24v-108h-354v640q0 104 -34 160t-124 56q-116 0 -193 -112t-77 -268v-344h14 q72 -6 138 -22v-110h-510zM284 1374q86 74 184 74q70 0 157 -50t147 -50q72 0 136 54l34 -114q-80 -72 -182 -72q-76 0 -163 49t-147 49q-70 0 -130 -54z" />
<glyph unicode="&#xf2;" horiz-adv-x="1032" d="M74 496q0 234 133 388t343 154q200 0 318 -126t118 -384q0 -236 -134 -392t-340 -156q-204 0 -321 128t-117 388zM270 518q0 -186 67 -283t193 -97q112 0 186 97t74 279q0 178 -66 274t-192 96q-108 0 -185 -94t-77 -272zM304 1370l82 126l298 -210l-68 -100z" />
<glyph unicode="&#xf3;" horiz-adv-x="1032" d="M74 496q0 234 133 388t343 154q200 0 318 -126t118 -384q0 -236 -134 -392t-340 -156q-204 0 -321 128t-117 388zM270 518q0 -186 67 -283t193 -97q112 0 186 97t74 279q0 178 -66 274t-192 96q-108 0 -185 -94t-77 -272zM412 1286l296 208l80 -122l-310 -186z" />
<glyph unicode="&#xf4;" horiz-adv-x="1032" d="M74 496q0 234 133 388t343 154q200 0 318 -126t118 -384q0 -236 -134 -392t-340 -156q-204 0 -321 128t-117 388zM262 1298l270 172l280 -168l-64 -104l-218 130l-212 -130zM270 518q0 -186 67 -283t193 -97q112 0 186 97t74 279q0 178 -66 274t-192 96q-108 0 -185 -94 t-77 -272z" />
<glyph unicode="&#xf5;" horiz-adv-x="1032" d="M74 496q0 234 133 388t343 154q200 0 318 -126t118 -384q0 -236 -134 -392t-340 -156q-204 0 -321 128t-117 388zM208 1374q86 74 184 74q70 0 157 -50t147 -50q72 0 136 54l34 -114q-80 -72 -182 -72q-76 0 -163 49t-147 49q-70 0 -130 -54zM270 518q0 -186 67 -283 t193 -97q112 0 186 97t74 279q0 178 -66 274t-192 96q-108 0 -185 -94t-77 -272z" />
<glyph unicode="&#xf6;" horiz-adv-x="1032" d="M74 496q0 234 133 388t343 154q200 0 318 -126t118 -384q0 -236 -134 -392t-340 -156q-204 0 -321 128t-117 388zM224 1336q0 46 31 76t77 30t78 -31t32 -75q0 -46 -32 -78t-78 -32t-77 32t-31 78zM270 518q0 -186 67 -283t193 -97q112 0 186 97t74 279q0 178 -66 274 t-192 96q-108 0 -185 -94t-77 -272zM626 1336q0 44 32 75t78 31q44 0 75 -31t31 -75q0 -46 -31 -78t-75 -32q-46 0 -78 32t-32 78z" />
<glyph unicode="&#xf7;" horiz-adv-x="1156" d="M96 452v154h964v-154h-964zM462 114q0 52 35 89t81 37q50 0 84 -37t34 -89t-34 -88t-84 -36q-46 0 -81 37t-35 87zM462 956q0 50 35 87t81 37q50 0 84 -36t34 -88t-34 -89t-84 -37q-46 0 -81 37t-35 89z" />
<glyph unicode="&#xf8;" horiz-adv-x="1062" d="M70 500q0 236 130 387t338 151q46 0 88 -6l10 -2l68 188l102 -34l-70 -184l12 -6q224 -112 224 -468q0 -238 -131 -392t-335 -154q-66 0 -110 14l-12 4l-74 -208l-104 32l80 208l-12 6q-204 120 -204 464zM244 512q0 -196 90 -292l16 -16l234 682l-18 2q-28 4 -48 4 q-4 0 -11 -1t-11 -1q-104 -8 -178 -102t-74 -276zM438 146l16 -6q38 -14 78 -14q2 0 7 1t7 1q108 8 179 106t71 284q0 218 -108 306l-14 12z" />
<glyph unicode="&#xf9;" horiz-adv-x="1180" d="M40 868v106q156 16 276 16q14 0 39 -1t37 -1v-640q0 -104 35 -160t125 -56q116 0 192 110t76 268v338l-12 2q-88 14 -138 18v106q118 16 248 16q58 0 86 -2v-846l12 -2q80 -14 158 -20v-108q-140 -14 -272 -14q-12 0 -36 1t-34 1q0 88 14 180l2 12l-28 14l-6 -14 q-44 -98 -128 -155t-198 -57q-278 0 -278 310v556l-12 2q-80 14 -158 20zM346 1370l82 126l298 -210l-68 -100z" />
<glyph unicode="&#xfa;" horiz-adv-x="1180" d="M40 868v106q156 16 276 16q14 0 39 -1t37 -1v-640q0 -104 35 -160t125 -56q116 0 192 110t76 268v338l-12 2q-88 14 -138 18v106q118 16 248 16q58 0 86 -2v-846l12 -2q80 -14 158 -20v-108q-140 -14 -272 -14q-12 0 -36 1t-34 1q0 88 14 180l2 12l-28 14l-6 -14 q-44 -98 -128 -155t-198 -57q-278 0 -278 310v556l-12 2q-80 14 -158 20zM488 1286l296 208l80 -122l-310 -186z" />
<glyph unicode="&#xfb;" horiz-adv-x="1180" d="M40 868v106q156 16 276 16q14 0 39 -1t37 -1v-640q0 -104 35 -160t125 -56q116 0 192 110t76 268v338l-12 2q-88 14 -138 18v106q118 16 248 16q58 0 86 -2v-846l12 -2q80 -14 158 -20v-108q-140 -14 -272 -14q-12 0 -36 1t-34 1q0 88 14 180l2 12l-28 14l-6 -14 q-44 -98 -128 -155t-198 -57q-278 0 -278 310v556l-12 2q-80 14 -158 20zM316 1298l270 172l280 -168l-64 -104l-218 130l-212 -130z" />
<glyph unicode="&#xfc;" horiz-adv-x="1180" d="M40 868v106q156 16 276 16q14 0 39 -1t37 -1v-640q0 -104 35 -160t125 -56q116 0 192 110t76 268v338l-12 2q-88 14 -138 18v106q118 16 248 16q58 0 86 -2v-846l12 -2q80 -14 158 -20v-108q-140 -14 -272 -14q-12 0 -36 1t-34 1q0 88 14 180l2 12l-28 14l-6 -14 q-44 -98 -128 -155t-198 -57q-278 0 -278 310v556l-12 2q-80 14 -158 20zM282 1336q0 46 31 76t77 30t78 -31t32 -75q0 -46 -32 -78t-78 -32t-77 32t-31 78zM684 1336q0 44 32 75t78 31q44 0 75 -31t31 -75q0 -46 -31 -78t-75 -32q-46 0 -78 32t-32 78z" />
<glyph unicode="&#xfd;" horiz-adv-x="1090" d="M14 878v110h436v-110q-46 -12 -100 -18l-20 -2l132 -394q38 -114 74 -258l4 -12h24l2 12q30 122 88 300l116 352l-18 2q-56 6 -102 18v110h428v-110q-30 -6 -108 -20l-10 -2l-336 -974q-76 -226 -167 -313t-251 -87q-48 0 -132 12l12 160q62 -18 126 -18q80 0 134 51 t100 183l44 130h-68l-290 856l-10 2q-78 14 -108 20zM480 1260l296 208l80 -122l-310 -186z" />
<glyph unicode="&#xff;" horiz-adv-x="1060" d="M14 878v110h436v-110q-46 -12 -100 -18l-20 -2l132 -394q38 -114 74 -258l4 -12h24l2 12q30 122 88 300l116 352l-18 2q-56 6 -102 18v110h428v-110q-30 -6 -108 -20l-10 -2l-336 -974q-76 -226 -167 -313t-251 -87q-48 0 -132 12l12 160q62 -18 126 -18q80 0 134 51 t100 183l44 130h-68l-290 856l-10 2q-78 14 -108 20zM220 1336q0 46 31 76t77 30t78 -31t32 -75q0 -46 -32 -78t-78 -32t-77 32t-31 78zM622 1336q0 44 32 75t78 31q44 0 75 -31t31 -75q0 -46 -31 -78t-75 -32q-46 0 -78 32t-32 78z" />
<glyph unicode="&#x152;" horiz-adv-x="1648" d="M78 678q0 318 179 510t441 192q48 0 134 -6t126 -6h558v-302h-132q-22 108 -24 142l-2 14h-346v-444h282l2 12q12 60 24 114h112v-386h-112q-12 46 -24 114l-2 12h-282v-480h354l2 14q6 62 22 150h136v-312h-560q-56 0 -154 -7t-150 -7q-290 0 -437 183t-147 493z M280 698q0 -242 100 -387t312 -145q66 0 122 14l12 2v1022l-14 2q-66 10 -122 10q-174 0 -292 -142t-118 -376z" />
<glyph unicode="&#x153;" horiz-adv-x="1712" d="M74 502q0 234 132 385t348 151q232 0 332 -166l12 -20l12 18q112 168 320 168q198 0 297 -123t99 -315q0 -40 -6 -90h-640v-14v-14q0 -354 308 -354q154 0 286 60l14 -146q-156 -62 -334 -62q-268 0 -370 182l-12 22l-12 -20q-120 -184 -346 -184q-218 0 -329 138 t-111 384zM260 512q0 -176 67 -278t207 -102q118 0 194 98t76 284q0 374 -270 374q-112 0 -193 -92t-81 -284zM982 634h454v14v12q0 106 -58 169t-156 63q-96 0 -160 -66t-78 -174z" />
<glyph unicode="&#x178;" horiz-adv-x="1140" d="M14 1258v110h464v-110q-72 -16 -118 -20l-22 -2l150 -342q68 -156 86 -206l4 -10h24l4 10l94 216l148 332l-20 2q-48 4 -120 20v110h450v-110q-36 -10 -104 -18h-8l-372 -756v-336l14 -2q64 -4 156 -24v-106h-524v106q92 20 158 24l12 2v336l-364 754l-8 2 q-68 10 -104 18zM258 1626q0 46 31 76t77 30t78 -31t32 -75q0 -46 -32 -78t-78 -32t-77 32t-31 78zM660 1626q0 44 32 75t78 31q44 0 75 -31t31 -75q0 -46 -31 -78t-75 -32q-46 0 -78 32t-32 78z" />
<glyph unicode="&#x2c6;" horiz-adv-x="880" d="M166 1298l270 172l280 -168l-64 -104l-218 130l-212 -130z" />
<glyph unicode="&#x2dc;" horiz-adv-x="988" d="M182 1374q86 74 184 74q70 0 157 -50t147 -50q72 0 136 54l34 -114q-80 -72 -182 -72q-76 0 -163 49t-147 49q-70 0 -130 -54z" />
<glyph unicode="&#x2013;" horiz-adv-x="1024" d="M16 510v162h992v-162h-992z" />
<glyph unicode="&#x2014;" horiz-adv-x="2048" d="M16 510v162h2016v-162h-2016z" />
<glyph unicode="&#x2018;" horiz-adv-x="520" d="M122 1120q0 194 226 400l70 -62q-112 -122 -112 -216q0 -50 36 -96q26 -32 26 -72q0 -48 -32 -82t-84 -34q-56 0 -93 44t-37 118z" />
<glyph unicode="&#x2019;" horiz-adv-x="520" d="M100 1010q110 124 110 216q0 56 -34 96q-26 32 -26 74q0 46 32 80t84 34q58 0 94 -45t36 -117q0 -194 -226 -400z" />
<glyph unicode="&#x201a;" horiz-adv-x="520" d="M100 -250q110 124 110 216q0 54 -34 94q-26 32 -26 74q0 46 32 80t84 34q58 0 94 -44t36 -116q0 -196 -226 -402z" />
<glyph unicode="&#x201c;" horiz-adv-x="934" d="M122 1120q0 194 226 400l70 -62q-112 -122 -112 -216q0 -50 36 -96q26 -32 26 -72q0 -48 -32 -82t-84 -34q-56 0 -93 44t-37 118zM536 1118q0 194 228 402l70 -62q-112 -122 -112 -216q0 -50 36 -96q26 -32 26 -72q0 -48 -33 -82t-85 -34q-58 0 -94 44t-36 116z" />
<glyph unicode="&#x201d;" horiz-adv-x="934" d="M100 1010q110 124 110 216q0 56 -34 96q-26 32 -26 74q0 46 32 80t84 34q58 0 94 -45t36 -117q0 -194 -226 -400zM514 1010q112 126 112 216q0 50 -36 96q-26 32 -26 72q0 48 33 82t85 34q58 0 94 -44t36 -116q0 -194 -228 -402z" />
<glyph unicode="&#x201e;" horiz-adv-x="934" d="M100 -250q110 124 110 216q0 54 -34 94q-26 32 -26 74q0 46 32 80t84 34q58 0 94 -44t36 -116q0 -196 -226 -402zM514 -250q112 124 112 216q0 52 -36 94q-26 32 -26 74q0 46 32 80t86 34q58 0 94 -44t36 -116q0 -194 -228 -402z" />
<glyph unicode="&#x2022;" horiz-adv-x="880" d="M174 600q0 108 74 183t182 75q106 0 182 -77t76 -181t-76 -180t-182 -76q-108 0 -182 75t-74 181z" />
<glyph unicode="&#x2026;" horiz-adv-x="1446" d="M118 124q0 52 38 90t92 38t92 -38t38 -90q0 -54 -38 -92t-92 -38t-92 38t-38 92zM586 124q0 52 38 90t92 38t92 -38t38 -90q0 -54 -38 -92t-92 -38t-92 38t-38 92zM1056 124q0 52 38 90t92 38t92 -38t38 -90q0 -54 -38 -92t-92 -38t-92 38t-38 92z" />
<glyph unicode="&#x2039;" horiz-adv-x="640" d="M116 506l230 362l138 -70l-194 -292l194 -284l-144 -74z" />
<glyph unicode="&#x203a;" horiz-adv-x="640" d="M158 220l190 290l-190 284l144 74l222 -358l-228 -362z" />
<glyph unicode="&#x2122;" horiz-adv-x="1730" d="M96 1150v218h550v-218h-74l-16 110l-2 12h-118v-398h14q40 -2 98 -18v-66h-352v66q60 16 96 18h14v398h-120v-12l-16 -110h-74zM698 790v68q22 6 70 12h10l76 412h-16q-40 6 -86 16v70h296l80 -290l36 -160l32 154l90 296h294v-70q-48 -12 -82 -16l-16 -2l76 -406l10 -2 l70 -12v-70h-288v68q26 8 58 12h16l-36 226l-26 166l-40 -152l-92 -320h-142l-90 324l-18 76q-4 12 -16 12q-14 0 -14 -14l-8 -64l-42 -254h16q34 -4 60 -12v-68h-278z" />
<glyph unicode="&#xe000;" horiz-adv-x="1000" d="M0 1000h1000v-1000h-1000v1000z" />
<glyph unicode="&#xfb01;" horiz-adv-x="1272" d="M24 878v140h216v56q0 224 127 330t355 106q128 0 286 -36l-34 -152q-138 38 -250 38q-302 0 -302 -272v-70h640v-856h16q66 -4 154 -24v-108h-500v108q80 20 136 24h14v716h-460v-716h14q50 -4 132 -24v-108h-506v108q96 20 164 24h14v716h-216z" />
<glyph unicode="&#xfb02;" horiz-adv-x="1272" d="M24 878v140h216v106q0 186 111 286t377 100q148 0 334 -30v-1318h16q66 -4 154 -24v-108h-500v108q80 20 136 24h14v1186l-14 2q-82 14 -168 14q-146 0 -212 -62t-66 -188v-96h252v-140h-252v-716h14q50 -4 132 -24v-108h-506v108q96 20 164 24h14v716h-216z" />
<glyph unicode="&#xfb03;" horiz-adv-x="2012" d="M24 878v140h216v94q0 202 87 300t269 98q68 0 154 -16l-14 -148q-62 16 -128 16q-198 0 -198 -246v-98h252v-140h-252v-716h12q56 -4 154 -24v-108h-514v108q96 20 164 24h14v716h-216zM714 878v140h216v94q0 202 87 300t269 98q68 0 154 -16l-14 -148q-62 16 -128 16 q-198 0 -198 -246v-98h252v-140h-252v-716h12q56 -4 154 -24v-108h-514v108q96 20 164 24h14v716h-216zM1438 16v106q96 20 164 24l14 2v712l-14 4q-62 10 -164 18v108q146 14 284 14h80v-856l14 -2q84 -6 156 -22v-108h-534zM1584 1322q0 52 36 87t88 35t89 -35t37 -87 q0 -50 -37 -86t-89 -36t-88 35t-36 87z" />
<glyph unicode="&#xfb04;" horiz-adv-x="1996" d="M24 878v140h216v94q0 202 87 300t269 98q68 0 154 -16l-14 -148q-62 16 -128 16q-198 0 -198 -246v-98h252v-140h-252v-716h12q56 -4 154 -24v-108h-514v108q96 20 164 24h14v716h-216zM714 878v140h216v94q0 202 87 300t269 98q68 0 154 -16l-14 -148q-62 16 -128 16 q-198 0 -198 -246v-98h252v-140h-252v-716h12q56 -4 154 -24v-108h-514v108q96 20 164 24h14v716h-216zM1420 30v108q96 20 164 24h16v1192l-14 2q-80 14 -166 20v106q168 16 286 16q14 0 40 -1t40 -1v-1334h14q70 -6 156 -24v-108h-536z" />
</font>
</defs>
</svg>
